# xmcd
#
# Track frame offsets:
#	150
#	15265
#	30265
#	44630
#
# Disc length: 793 seconds
#
# Revision: 1
# Processed by: cddbd v1.5PL3 Copyright (c) Steve Scherf et al.
# Submitted via: EasyCDDAExtractor 6.2.0.3
#
DISCID=21031704
DTITLE=Road Crew - Hot Dance Disco Hits Vol.4
DYEAR=1997
DGENRE=Hip-Hop
TTITLE0=Daddy Cool
TTITLE1=Ring Ring
TTITLE2=Staying Alive
TTITLE3=Upside Down
EXTD=
EXTT0=
EXTT1=
EXTT2=
EXTT3=
PLAYORDER=
